{
  "accessors": [
    {
      "bufferView": 2,
      "componentType": 5126,
      "count": 1732,
      "max": [
        2.4865448474884033,
        18.906930923461914,
        1.954239010810852
      ],
      "min": [
        -2.4865448474884033,
        -0.005913000088185072,
        -0.9944810271263123
      ],
      "type": "VEC3"
    },
    {
      "bufferView": 2,
      "byteOffset": 20784,
      "componentType": 5126,
      "count": 1732,
      "max": [
        0.9999499917030334,
        0.9998788833618164,
        0.9998963475227356
      ],
      "min": [
        -0.9999499917030334,
        -1.0,
        -0.9998305439949036
      ],
      "type": "VEC3"
    },
    {
      "bufferView": 1,
      "componentType": 5126,
      "count": 1732,
      "max": [
        0.9909610152244568,
        0.96915602684021
      ],
      "min": [
        0.02698799967765808,
        0.019634999334812164
      ],
      "type": "VEC2"
    },
    {
      "bufferView": 0,
      "componentType": 5125,
      "count": 8676,
      "type": "SCALAR"
    },
    {
      "bufferView": 2,
      "byteOffset": 41568,
      "componentType": 5126,
      "count": 110,
      "max": [
        1.8454679250717163,
        19.28190040588379,
        2.0726230144500732
      ],
      "min": [
        -1.8901612758636475,
        15.736976623535156,
        -1.3915667533874512
      ],
      "type": "VEC3"
    },
    {
      "bufferView": 2,
      "byteOffset": 42888,
      "componentType": 5126,
      "count": 110,
      "max": [
        0.9478897452354431,
        0.998216986656189,
        0.9946169853210449
      ],
      "min": [
        -0.9478897452354431,
        -0.9769982099533081,
        -0.9747030138969421
      ],
      "type": "VEC3"
    },
    {
      "bufferView": 1,
      "byteOffset": 13856,
      "componentType": 5126,
      "count": 110,
      "max": [
        0.9898539781570435,
        0.9493870139122009
      ],
      "min": [
        0.7948970198631287,
        0.7192149758338928
      ],
      "type": "VEC2"
    },
    {
      "bufferView": 0,
      "byteOffset": 34704,
      "componentType": 5125,
      "count": 510,
      "type": "SCALAR"
    },
    {
      "bufferView": 2,
      "byteOffset": 44208,
      "componentType": 5126,
      "count": 82,
      "max": [
        0.7547720074653625,
        17.55504608154297,
        1.6801040172576904
      ],
      "min": [
        0.21096600592136383,
        17.011240005493164,
        1.1253139972686768
      ],
      "type": "VEC3"
    },
    {
      "bufferView": 2,
      "byteOffset": 45192,
      "componentType": 5126,
      "count": 82,
      "max": [
        1.0,
        1.0,
        1.0
      ],
      "min": [
        -1.0,
        -1.0,
        -1.0
      ],
      "type": "VEC3"
    },
    {
      "bufferView": 1,
      "byteOffset": 14736,
      "componentType": 5126,
      "count": 82,
      "max": [
        0.44358301162719727,
        0.33548200130462646
      ],
      "min": [
        0.004401999991387129,
        0.13800300657749176
      ],
      "type": "VEC2"
    },
    {
      "bufferView": 0,
      "byteOffset": 36744,
      "componentType": 5125,
      "count": 432,
      "type": "SCALAR"
    },
    {
      "bufferView": 2,
      "byteOffset": 46176,
      "componentType": 5126,
      "count": 82,
      "max": [
        -0.21096600592136383,
        17.55504608154297,
        1.6801040172576904
      ],
      "min": [
        -0.7547720074653625,
        17.011240005493164,
        1.1253139972686768
      ],
      "type": "VEC3"
    },
    {
      "bufferView": 2,
      "byteOffset": 47160,
      "componentType": 5126,
      "count": 82,
      "max": [
        1.0,
        1.0,
        1.0
      ],
      "min": [
        -1.0,
        -1.0,
        -1.0
      ],
      "type": "VEC3"
    },
    {
      "bufferView": 1,
      "byteOffset": 15392,
      "componentType": 5126,
      "count": 82,
      "max": [
        0.44358301162719727,
        0.33548200130462646
      ],
      "min": [
        0.004401999991387129,
        0.13800300657749176
      ],
      "type": "VEC2"
    },
    {
      "bufferView": 0,
      "byteOffset": 38472,
      "componentType": 5125,
      "count": 432,
      "type": "SCALAR"
    }
  ],
  "asset": {
    "extras": {
      "author": "Biomonger (https://sketchfab.com/Biomonger)",
      "license": "CC-BY-4.0 (http://creativecommons.org/licenses/by/4.0/)",
      "source": "https://sketchfab.com/3d-models/low-poly-girl-a29a999edaa94db2a7e045cb124fb387",
      "title": "Low-poly girl"
    },
    "generator": "Sketchfab-12.65.0",
    "version": "2.0"
  },
  "bufferViews": [
    {
      "buffer": 0,
      "byteLength": 40200,
      "name": "floatBufferViews",
      "target": 34963
    },
    {
      "buffer": 0,
      "byteLength": 16048,
      "byteOffset": 40200,
      "byteStride": 8,
      "name": "floatBufferViews",
      "target": 34962
    },
    {
      "buffer": 0,
      "byteLength": 48144,
      "byteOffset": 56248,
      "byteStride": 12,
      "name": "floatBufferViews",
      "target": 34962
    }
  ],
  "buffers": [
    {
      "byteLength": 104392,
      "uri": "scene.bin"
    }
  ],
  "images": [
    {
      "uri": "textures/girl_MAT_baseColor.png"
    }
  ],
  "materials": [
    {
      "doubleSided": true,
      "name": "girl_MAT",
      "pbrMetallicRoughness": {
        "baseColorTexture": {
          "index": 0
        },
        "metallicFactor": 0.0,
        "roughnessFactor": 0.9968724426
      }
    },
    {
      "doubleSided": true,
      "name": "amputee_0107girl_MAT",
      "pbrMetallicRoughness": {
        "baseColorTexture": {
          "index": 0
        },
        "metallicFactor": 0.0,
        "roughnessFactor": 0.9968724425811011
      }
    }
  ],
  "meshes": [
    {
      "name": "polySurface1_girl_MAT_0",
      "primitives": [
        {
          "attributes": {
            "NORMAL": 1,
            "POSITION": 0,
            "TEXCOORD_0": 2
          },
          "indices": 3,
          "material": 0,
          "mode": 4
        }
      ]
    },
    {
      "name": "polySurface2_girl_MAT_0",
      "primitives": [
        {
          "attributes": {
            "NORMAL": 5,
            "POSITION": 4,
            "TEXCOORD_0": 6
          },
          "indices": 7,
          "material": 0,
          "mode": 4
        }
      ]
    },
    {
      "name": "amputee_0107:polySurface3_amputee_0107:girl_MAT_0",
      "primitives": [
        {
          "attributes": {
            "NORMAL": 9,
            "POSITION": 8,
            "TEXCOORD_0": 10
          },
          "indices": 11,
          "material": 1,
          "mode": 4
        }
      ]
    },
    {
      "name": "amputee_0107:polySurface4_amputee_0107:girl_MAT_0",
      "primitives": [
        {
          "attributes": {
            "NORMAL": 13,
            "POSITION": 12,
            "TEXCOORD_0": 14
          },
          "indices": 15,
          "material": 1,
          "mode": 4
        }
      ]
    }
  ],
  "nodes": [
    {
      "children": [
        1
      ],
      "matrix": [
        0.08965276181697845,
        0.0,
        0.0,
        0.0,
        0.0,
        1.9906912078088913e-17,
        -0.08965276181697845,
        0.0,
        0.0,
        0.08965276181697845,
        1.9906912078088913e-17,
        0.0,
        0.0,
        0.0,
        0.0,
        1.0
      ],
      "name": "Sketchfab_model"
    },
    {
      "children": [
        2
      ],
      "matrix": [
        1.0,
        0.0,
        0.0,
        0.0,
        0.0,
        0.0,
        1.0,
        0.0,
        0.0,
        -1.0,
        0.0,
        0.0,
        0.0,
        0.0,
        0.0,
        1.0
      ],
      "name": "30ecc7007e8e4c6f8f556f5d1544e80a.fbx"
    },
    {
      "children": [
        3,
        8
      ],
      "name": "RootNode"
    },
    {
      "children": [
        4,
        6
      ],
      "name": "Girl_mesh"
    },
    {
      "children": [
        5
      ],
      "matrix": [
        1.0,
        0.0,
        0.0,
        0.0,
        0.0,
        1.0,
        0.0,
        0.0,
        0.0,
        0.0,
        1.0,
        0.0,
        0.0,
        0.0,
        0.4679407775402069,
        1.0
      ],
      "name": "polySurface1"
    },
    {
      "mesh": 0,
      "name": "polySurface1_girl_MAT_0"
    },
    {
      "children": [
        7
      ],
      "matrix": [
        1.0,
        0.0,
        0.0,
        0.0,
        0.0,
        1.0,
        0.0,
        0.0,
        0.0,
        0.0,
        1.0,
        0.0,
        0.0,
        0.0,
        0.4679407775402069,
        1.0
      ],
      "name": "polySurface2"
    },
    {
      "mesh": 1,
      "name": "polySurface2_girl_MAT_0"
    },
    {
      "children": [
        9,
        11
      ],
      "name": "amputee_0107:Girl_mesh"
    },
    {
      "children": [
        10
      ],
      "matrix": [
        1.0,
        0.0,
        0.0,
        0.0,
        0.0,
        1.0,
        0.0,
        0.0,
        0.0,
        0.0,
        1.0,
        0.0,
        0.0,
        0.0,
        0.4679407775402069,
        1.0
      ],
      "name": "amputee_0107:polySurface3"
    },
    {
      "mesh": 2,
      "name": "amputee_0107:polySurface3_amputee_0107:girl_MAT_0"
    },
    {
      "children": [
        12
      ],
      "matrix": [
        1.0,
        0.0,
        0.0,
        0.0,
        0.0,
        1.0,
        0.0,
        0.0,
        0.0,
        0.0,
        1.0,
        0.0,
        0.0,
        0.0,
        0.4679407775402069,
        1.0
      ],
      "name": "amputee_0107:polySurface4"
    },
    {
      "mesh": 3,
      "name": "amputee_0107:polySurface4_amputee_0107:girl_MAT_0"
    }
  ],
  "samplers": [
    {
      "magFilter": 9729,
      "minFilter": 9987,
      "wrapS": 10497,
      "wrapT": 10497
    }
  ],
  "scene": 0,
  "scenes": [
    {
      "name": "Sketchfab_Scene",
      "nodes": [
        0
      ]
    }
  ],
  "textures": [
    {
      "sampler": 0,
      "source": 0
    }
  ]
}
